<svg width="16" height="20" viewBox="0 0 16 20" fill="none" xmlns="http://www.w3.org/2000/svg">
<path fill-rule="evenodd" clip-rule="evenodd" d="M3 1.5C2.60218 1.5 2.22064 1.65804 1.93934 1.93934C1.65804 2.22064 1.5 2.60218 1.5 3V17C1.5 17.3978 1.65804 17.7794 1.93934 18.0607C2.22064 18.342 2.60218 18.5 3 18.5H13C13.3978 18.5 13.7794 18.342 14.0607 18.0607C14.342 17.7794 14.5 17.3978 14.5 17V7.41411C14.4999 7.28155 14.4473 7.15433 14.3535 7.06061L8.93945 1.64655C8.84573 1.5528 8.71856 1.50006 8.586 1.5H3ZM1.23223 1.23223C1.70107 0.763392 2.33696 0.5 3 0.5H8.586C8.98377 0.500085 9.36532 0.658156 9.64655 0.939447M9.64655 0.939447L15.0605 6.35339C15.3418 6.63463 15.4999 7.01613 15.5 7.41389V17C15.5 17.663 15.2366 18.2989 14.7678 18.7678C14.2989 19.2366 13.663 19.5 13 19.5H3C2.33696 19.5 1.70107 19.2366 1.23223 18.7678C0.763392 18.2989 0.5 17.663 0.5 17V3C0.5 2.33696 0.763392 1.70107 1.23223 1.23223" fill="#3F82EF"/>
<path fill-rule="evenodd" clip-rule="evenodd" d="M4.9395 10.9392L1.5 14.3787V15.1716C1.5 15.4477 1.27614 15.6716 1 15.6716C0.723858 15.6716 0.5 15.4477 0.5 15.1716V14.1716C0.5 14.039 0.552678 13.9118 0.646447 13.818L4.23245 10.232C4.70127 9.76334 5.33709 9.5 6 9.5C6.66291 9.5 7.29868 9.76329 7.7675 10.232L10 12.4645L11.2324 11.232C11.7013 10.7633 12.3371 10.5 13 10.5C13.6629 10.5 14.2987 10.7633 14.7675 11.232L15.3536 11.818C15.4473 11.9118 15.5 12.039 15.5 12.1716V13.1716C15.5 13.4477 15.2761 13.6716 15 13.6716C14.7239 13.6716 14.5 13.4477 14.5 13.1716V12.3787L14.0605 11.9392C13.7792 11.658 13.3977 11.5 13 11.5C12.6023 11.5 12.2208 11.658 11.9396 11.9391L10.7071 13.1716L12.3536 14.818C12.5488 15.0133 12.5488 15.3299 12.3536 15.5251C12.1583 15.7204 11.8417 15.7204 11.6464 15.5251L7.0605 10.9392C6.77921 10.658 6.39772 10.5 6 10.5C5.60228 10.5 5.22079 10.658 4.9395 10.9392Z" fill="#3F82EF"/>
<path fill-rule="evenodd" clip-rule="evenodd" d="M9.5 8C9.5 7.72386 9.72386 7.5 10 7.5H10.01C10.2861 7.5 10.51 7.72386 10.51 8C10.51 8.27614 10.2861 8.5 10.01 8.5H10C9.72386 8.5 9.5 8.27614 9.5 8Z" fill="#3F82EF"/>
</svg>
