<svg width="16" height="20" viewBox="0 0 16 20" fill="none" xmlns="http://www.w3.org/2000/svg">
<path fill-rule="evenodd" clip-rule="evenodd" d="M3 1.5C2.60218 1.5 2.22064 1.65804 1.93934 1.93934C1.65804 2.22064 1.5 2.60218 1.5 3V17C1.5 17.3978 1.65804 17.7794 1.93934 18.0607C2.22064 18.342 2.60218 18.5 3 18.5H13C13.3978 18.5 13.7794 18.342 14.0607 18.0607C14.342 17.7794 14.5 17.3978 14.5 17V7.41411C14.4999 7.28155 14.4473 7.15433 14.3535 7.06061L8.93945 1.64655C8.84573 1.5528 8.71856 1.50006 8.586 1.5H3ZM1.23223 1.23223C1.70107 0.763392 2.33696 0.5 3 0.5H8.586C8.98377 0.500085 9.36532 0.658156 9.64655 0.939447M9.64655 0.939447L15.0605 6.35339C15.3418 6.63463 15.4999 7.01613 15.5 7.41389V17C15.5 17.663 15.2366 18.2989 14.7678 18.7678C14.2989 19.2366 13.663 19.5 13 19.5H3C2.33696 19.5 1.70107 19.2366 1.23223 18.7678C0.763392 18.2989 0.5 17.663 0.5 17V3C0.5 2.33696 0.763392 1.70107 1.23223 1.23223" fill="#E72A2A"/>
<path fill-rule="evenodd" clip-rule="evenodd" d="M3.47188 7.97188C3.77403 7.66974 4.18382 7.5 4.61111 7.5H8.38889C8.81618 7.5 9.22598 7.66974 9.52812 7.97188C9.83026 8.27402 10 8.68382 10 9.11111V9.35739L11.4466 8.52447C11.4552 8.51956 11.4638 8.51491 11.4726 8.51051C11.6335 8.43011 11.8123 8.39216 11.9919 8.40025C12.1716 8.40835 12.3462 8.46222 12.4993 8.55675C12.6523 8.65128 12.7786 8.78334 12.8662 8.94041C12.9539 9.09748 12.9999 9.27433 13 9.45418V13.2122C12.9999 13.3921 12.9539 13.5692 12.8662 13.7263C12.7786 13.8833 12.6523 14.0154 12.4993 14.1099C12.3462 14.2045 12.1716 14.2583 11.9919 14.2664C11.8123 14.2745 11.6335 14.2366 11.4726 14.1562C11.4638 14.1518 11.4552 14.1471 11.4466 14.1422L10 13.3093V13.5556C10 13.9828 9.83026 14.3926 9.52812 14.6948C9.22598 14.9969 8.81618 15.1667 8.38889 15.1667H4.61111C4.18382 15.1667 3.77403 14.9969 3.47188 14.6948C3.16974 14.3926 3 13.9828 3 13.5556V9.11111C3 8.68382 3.16974 8.27403 3.47188 7.97188ZM10 12.1554L11.9262 13.2644C11.9328 13.2667 11.9399 13.2677 11.9469 13.2674C11.9564 13.267 11.9656 13.2642 11.9736 13.2592C11.9817 13.2542 11.9884 13.2473 11.993 13.239C11.9976 13.2307 12 13.2214 12 13.212V9.45471C12 9.44524 11.9976 9.43593 11.993 9.42767C11.9884 9.41941 11.9817 9.41246 11.9736 9.40748C11.9656 9.4025 11.9564 9.39967 11.9469 9.39924C11.9399 9.39892 11.9328 9.39996 11.9262 9.40228L10 10.5113V12.1554ZM9 9.11111C9 8.94903 8.93562 8.7936 8.82101 8.67899C8.70641 8.56438 8.55097 8.5 8.38889 8.5H4.61111C4.44904 8.5 4.2936 8.56438 4.17899 8.67899C4.06439 8.7936 4 8.94903 4 9.11111V13.5556C4 13.7176 4.06439 13.8731 4.17899 13.9877C4.2936 14.1023 4.44904 14.1667 4.61111 14.1667H8.38889C8.55097 14.1667 8.7064 14.1023 8.82101 13.9877C8.93562 13.8731 9 13.7176 9 13.5556V9.11111Z" fill="#E72A2A"/>
</svg>
