<svg width="16" height="20" viewBox="0 0 16 20" fill="none" xmlns="http://www.w3.org/2000/svg">
<path fill-rule="evenodd" clip-rule="evenodd" d="M3 1.5C2.60218 1.5 2.22064 1.65804 1.93934 1.93934C1.65804 2.22064 1.5 2.60218 1.5 3V17C1.5 17.3978 1.65804 17.7794 1.93934 18.0607C2.22064 18.342 2.60218 18.5 3 18.5H13C13.3978 18.5 13.7794 18.342 14.0607 18.0607C14.342 17.7794 14.5 17.3978 14.5 17V7.41411C14.4999 7.28155 14.4473 7.15433 14.3535 7.06061L8.93945 1.64655C8.84573 1.5528 8.71856 1.50006 8.586 1.5H3ZM1.23223 1.23223C1.70107 0.763392 2.33696 0.5 3 0.5H8.586C8.98377 0.500085 9.36532 0.658156 9.64655 0.939447M9.64655 0.939447L15.0605 6.35339C15.3418 6.63463 15.4999 7.01613 15.5 7.41389V17C15.5 17.663 15.2366 18.2989 14.7678 18.7678C14.2989 19.2366 13.663 19.5 13 19.5H3C2.33696 19.5 1.70107 19.2366 1.23223 18.7678C0.763392 18.2989 0.5 17.663 0.5 17V3C0.5 2.33696 0.763392 1.70107 1.23223 1.23223" fill="#299438"/>
<path fill-rule="evenodd" clip-rule="evenodd" d="M7.50002 8.57954L5.50295 10.5766C5.40918 10.6704 5.282 10.7231 5.14939 10.7231H4.50008V12.3897H5.14939C5.282 12.3897 5.40918 12.4424 5.50295 12.5361L7.50002 14.5332V8.57954ZM6.88781 7.77754C7.48272 7.18262 8.50002 7.60377 8.50002 8.44531V14.6674C8.50002 15.509 7.48273 15.9301 6.88781 15.3352L4.94229 13.3897H4.44451C4.19403 13.3897 3.95381 13.2902 3.7767 13.1131C3.59958 12.936 3.50008 12.6957 3.50008 12.4453V10.6675C3.50008 10.417 3.59958 10.1768 3.7767 9.99968C3.95381 9.82257 4.19403 9.72306 4.44451 9.72306H4.94229L6.88781 7.77754ZM10.4749 8.37442C10.6701 8.17916 10.9867 8.17916 11.182 8.37442C11.5998 8.79228 11.9313 9.28835 12.1575 9.83431C12.3836 10.3803 12.5 10.9654 12.5 11.5564C12.5 12.1473 12.3836 12.7325 12.1575 13.2784C11.9313 13.8244 11.5998 14.3205 11.182 14.7383C10.9867 14.9336 10.6701 14.9336 10.4749 14.7383C10.2796 14.5431 10.2796 14.2265 10.4749 14.0312C10.7999 13.7062 11.0577 13.3204 11.2336 12.8958C11.4095 12.4711 11.5 12.016 11.5 11.5564C11.5 11.0968 11.4095 10.6416 11.2336 10.217C11.0577 9.79236 10.7999 9.40653 10.4749 9.08153C10.2796 8.88627 10.2796 8.56968 10.4749 8.37442ZM9.21795 9.63134C9.41319 9.43605 9.72977 9.43601 9.92506 9.63124C10.1779 9.88403 10.3785 10.1842 10.5153 10.5145C10.6522 10.8448 10.7226 11.1988 10.7226 11.5564C10.7226 11.9139 10.6522 12.268 10.5153 12.5983C10.3785 12.9286 10.1779 13.2287 9.92506 13.4815C9.72977 13.6767 9.41319 13.6767 9.21795 13.4814C9.02272 13.2861 9.02276 12.9695 9.21805 12.7743C9.37801 12.6144 9.50491 12.4245 9.59149 12.2155C9.67806 12.0066 9.72263 11.7826 9.72263 11.5564C9.72263 11.3302 9.67806 11.1062 9.59149 10.8972C9.50491 10.6882 9.37801 10.4984 9.21805 10.3384C9.02276 10.1432 9.02272 9.82662 9.21795 9.63134Z" fill="#299438"/>
</svg>
