<svg width="16" height="20" viewBox="0 0 16 20" fill="none" xmlns="http://www.w3.org/2000/svg">
<path fill-rule="evenodd" clip-rule="evenodd" d="M3 1.5C2.60218 1.5 2.22064 1.65804 1.93934 1.93934C1.65804 2.22064 1.5 2.60218 1.5 3V17C1.5 17.3978 1.65804 17.7794 1.93934 18.0607C2.22064 18.342 2.60218 18.5 3 18.5H13C13.3978 18.5 13.7794 18.342 14.0607 18.0607C14.342 17.7794 14.5 17.3978 14.5 17V7.41411C14.4999 7.28155 14.4473 7.15433 14.3535 7.06061L8.93945 1.64655C8.84573 1.5528 8.71856 1.50006 8.586 1.5H3ZM1.23223 1.23223C1.70107 0.763392 2.33696 0.5 3 0.5H8.586C8.98377 0.500085 9.36532 0.658156 9.64655 0.939447M9.64655 0.939447L15.0605 6.35339C15.3418 6.63463 15.4999 7.01613 15.5 7.41389V17C15.5 17.663 15.2366 18.2989 14.7678 18.7678C14.2989 19.2366 13.663 19.5 13 19.5H3C2.33696 19.5 1.70107 19.2366 1.23223 18.7678C0.763392 18.2989 0.5 17.663 0.5 17V3C0.5 2.33696 0.763392 1.70107 1.23223 1.23223" fill="#3F82EF"/>
<path fill-rule="evenodd" clip-rule="evenodd" d="M7.3875 6.5528C7.52827 6.48242 7.69395 6.48242 7.83472 6.5528L8.7375 7.00419C8.98448 7.12768 9.0846 7.42802 8.9611 7.67501C8.83761 7.922 8.53727 8.02211 8.29028 7.89861L7.61111 7.55903L6.93194 7.89861C6.68495 8.02211 6.38461 7.922 6.26112 7.67501C6.13763 7.42802 6.23774 7.12768 6.48473 7.00419L7.3875 6.5528ZM10.15 8.13057C10.2735 7.88358 10.5738 7.78347 10.8208 7.90696L11.7236 8.35835C11.893 8.44305 12 8.61618 12 8.80557V9.93404C12 10.2102 11.7761 10.434 11.5 10.434C11.2239 10.434 11 10.2102 11 9.93404V9.61458L10.8208 9.70417C10.5738 9.82766 10.2735 9.72755 10.15 9.48056C10.0265 9.23357 10.1266 8.93324 10.3736 8.80974L10.382 8.80557L10.3736 8.80139C10.1266 8.6779 10.0265 8.37756 10.15 8.13057ZM5.34999 8.13057C5.47349 8.37756 5.37337 8.6779 5.12638 8.80139L5.11803 8.80557L5.12638 8.80974C5.37337 8.93324 5.47349 9.23357 5.34999 9.48056C5.2265 9.72755 4.92616 9.82766 4.67917 9.70417L4.5 9.61458V9.93404C4.5 10.2102 4.27614 10.434 4 10.434C3.72386 10.434 3.5 10.2102 3.5 9.93404V8.80557C3.5 8.61618 3.607 8.44305 3.77639 8.35835L4.67917 7.90696C4.92616 7.78347 5.2265 7.88358 5.34999 8.13057ZM6.26112 9.93613C6.38461 9.68914 6.68495 9.58903 6.93194 9.71252L7.61111 10.0521L8.29028 9.71252C8.53727 9.58903 8.83761 9.68914 8.9611 9.93613C9.0846 10.1831 8.98448 10.4835 8.7375 10.6069L8.11111 10.9201V11.7396C8.11111 12.0157 7.88725 12.2396 7.61111 12.2396C7.33497 12.2396 7.11111 12.0157 7.11111 11.7396V10.9201L6.48473 10.6069C6.23774 10.4835 6.13763 10.1831 6.26112 9.93613ZM4 11.691C4.27614 11.691 4.5 11.9148 4.5 12.191V13.0104L5.12638 13.3236C5.37337 13.4471 5.47349 13.7475 5.34999 13.9945C5.2265 14.2414 4.92616 14.3416 4.67917 14.2181L3.77639 13.7667C3.607 13.682 3.5 13.5088 3.5 13.3195V12.191C3.5 11.9148 3.72386 11.691 4 11.691ZM11.5 11.691C11.7761 11.691 12 11.9148 12 12.191V13.3195C12 13.5088 11.893 13.682 11.7236 13.7667L10.8208 14.2181C10.5738 14.3416 10.2735 14.2414 10.15 13.9945C10.0265 13.7475 10.1266 13.4471 10.3736 13.3236L11 13.0104V12.191C11 11.9148 11.2239 11.691 11.5 11.691ZM7.61111 13.4965C7.88725 13.4965 8.11111 13.7204 8.11111 13.9965V14.316L8.29028 14.2264C8.53727 14.1029 8.83761 14.203 8.9611 14.45C9.0846 14.697 8.98448 14.9973 8.7375 15.1208L7.83472 15.5722C7.69395 15.6426 7.52827 15.6426 7.3875 15.5722L6.48473 15.1208C6.23774 14.9973 6.13763 14.697 6.26112 14.45C6.38461 14.203 6.68495 14.1029 6.93194 14.2264L7.11111 14.316V13.9965C7.11111 13.7204 7.33497 13.4965 7.61111 13.4965Z" fill="#3F82EF"/>
</svg>
