<svg width="16" height="20" viewBox="0 0 16 20" fill="none" xmlns="http://www.w3.org/2000/svg">
<path fill-rule="evenodd" clip-rule="evenodd" d="M3 1.5C2.60218 1.5 2.22064 1.65804 1.93934 1.93934C1.65804 2.22064 1.5 2.60218 1.5 3V17C1.5 17.3978 1.65804 17.7794 1.93934 18.0607C2.22064 18.342 2.60218 18.5 3 18.5H13C13.3978 18.5 13.7794 18.342 14.0607 18.0607C14.342 17.7794 14.5 17.3978 14.5 17V7.41411C14.4999 7.28155 14.4473 7.15433 14.3535 7.06061L8.93945 1.64655C8.84573 1.5528 8.71856 1.50006 8.586 1.5H3ZM1.23223 1.23223C1.70107 0.763392 2.33696 0.5 3 0.5H8.586C8.98377 0.500085 9.36532 0.658156 9.64655 0.939447M9.64655 0.939447L15.0605 6.35339C15.3418 6.63463 15.4999 7.01613 15.5 7.41389V17C15.5 17.663 15.2366 18.2989 14.7678 18.7678C14.2989 19.2366 13.663 19.5 13 19.5H3C2.33696 19.5 1.70107 19.2366 1.23223 18.7678C0.763392 18.2989 0.5 17.663 0.5 17V3C0.5 2.33696 0.763392 1.70107 1.23223 1.23223" fill="#E72A2A"/>
<path d="M6.15846 6.00247C5.6709 5.99394 5.25005 6.47889 5.35319 6.96337C5.42257 7.70371 5.89993 8.30447 6.27245 8.9158C6.31432 9.14338 6.19426 9.36506 6.18624 9.59107C5.94336 10.9178 5.57284 12.2376 5.0028 13.4553C4.29745 13.78 3.49877 14.1007 3.0862 14.8006C2.82436 15.2861 3.19304 15.9415 3.73422 15.9927C4.2363 16.0614 4.60895 15.6311 4.88342 15.2706C5.16999 14.8829 5.35855 14.4211 5.59699 14.0044C7.04012 13.4232 8.558 13.0171 10.1078 12.8629C10.7343 13.3114 11.3983 13.8404 12.2017 13.8724C12.6687 13.8654 13.0466 13.4121 12.9953 12.9516C12.9653 12.5324 12.5928 12.2384 12.2069 12.1597C11.5847 11.9722 10.9181 12.0748 10.2851 12.0794C9.06691 11.106 7.9423 9.98613 7.05661 8.70462C7.12235 7.9256 7.25435 7.06387 6.84869 6.35515C6.69468 6.13164 6.43364 5.9785 6.15846 6.00247ZM6.18168 6.70995C6.31883 6.73637 6.32797 6.94067 6.36638 7.04996C6.40252 7.27263 6.39857 7.49984 6.39593 7.7247C6.23258 7.41939 6.0204 7.10045 6.0582 6.73846C6.10126 6.73678 6.13938 6.71495 6.18168 6.70995ZM6.93735 9.74788C7.66337 10.6505 8.46983 11.4818 9.34998 12.2357C8.18952 12.4127 7.03658 12.7091 5.93261 13.1089C6.35606 12.0022 6.67847 10.8588 6.89091 9.69192C6.90639 9.71057 6.92187 9.72923 6.93735 9.74788ZM11.4661 12.7827C11.7476 12.8098 12.0725 12.7935 12.2977 12.9875C12.3189 13.1626 12.1047 13.1882 11.9906 13.1248C11.7526 13.0453 11.5172 12.9454 11.3151 12.7932C11.3655 12.7901 11.4156 12.7836 11.4661 12.7827ZM4.43183 14.6242C4.29797 14.8732 4.10314 15.1079 3.89991 15.2842C3.83229 15.3937 3.64672 15.1912 3.73211 15.1057C3.90842 14.8298 4.21622 14.6835 4.48882 14.5186C4.46983 14.5538 4.45083 14.589 4.43183 14.6242Z" fill="#E72A2A"/>
</svg>
