<svg width="16" height="20" viewBox="0 0 16 20" fill="none" xmlns="http://www.w3.org/2000/svg">
<path fill-rule="evenodd" clip-rule="evenodd" d="M3 1.5C2.60218 1.5 2.22064 1.65804 1.93934 1.93934C1.65804 2.22064 1.5 2.60218 1.5 3V17C1.5 17.3978 1.65804 17.7794 1.93934 18.0607C2.22064 18.342 2.60218 18.5 3 18.5H13C13.3978 18.5 13.7794 18.342 14.0607 18.0607C14.342 17.7794 14.5 17.3978 14.5 17V7.41411C14.4999 7.28155 14.4473 7.15433 14.3535 7.06061L8.93945 1.64655C8.84573 1.5528 8.71856 1.50006 8.586 1.5H3ZM1.23223 1.23223C1.70107 0.763392 2.33696 0.5 3 0.5H8.586C8.98377 0.500085 9.36532 0.658156 9.64655 0.939447M9.64655 0.939447L15.0605 6.35339C15.3418 6.63463 15.4999 7.01613 15.5 7.41389V17C15.5 17.663 15.2366 18.2989 14.7678 18.7678C14.2989 19.2366 13.663 19.5 13 19.5H3C2.33696 19.5 1.70107 19.2366 1.23223 18.7678C0.763392 18.2989 0.5 17.663 0.5 17V3C0.5 2.33696 0.763392 1.70107 1.23223 1.23223" fill="#EB8909"/>
<path fill-rule="evenodd" clip-rule="evenodd" d="M2.5 8C2.5 7.72386 2.72386 7.5 3 7.5H13C13.2761 7.5 13.5 7.72386 13.5 8C13.5 8.25831 13.3041 8.47087 13.0528 8.49725V13.6471C13.0528 13.8965 12.9589 14.1405 12.7843 14.3242C12.6088 14.5089 12.3653 14.6176 12.1056 14.6176H9.16492L10.1513 15.6556C10.3415 15.8557 10.3334 16.1722 10.1333 16.3624C9.93308 16.5527 9.6166 16.5446 9.42638 16.3444L8 14.8435L6.57362 16.3444C6.3834 16.5446 6.06692 16.5527 5.86675 16.3624C5.66657 16.1722 5.65851 15.8557 5.84874 15.6556L6.83508 14.6176H3.89441C3.63474 14.6176 3.39119 14.5089 3.21574 14.3242C3.04113 14.1405 2.94721 13.8965 2.94721 13.6471V8.49725C2.69588 8.47087 2.5 8.25831 2.5 8ZM3.94721 8.5V13.6176H12.0528V8.5H3.94721ZM10.8536 9.64645C11.0488 9.84171 11.0488 10.1583 10.8536 10.3536L8.85355 12.3536C8.65829 12.5488 8.34171 12.5488 8.14645 12.3536L6.98586 11.193L5.83884 12.25C5.63578 12.4372 5.31946 12.4243 5.13232 12.2212C4.94519 12.0181 4.9581 11.7018 5.16116 11.5147L6.66116 10.1323C6.85839 9.95056 7.1639 9.95679 7.35355 10.1464L8.5 11.2929L10.1464 9.64645C10.3417 9.45118 10.6583 9.45118 10.8536 9.64645Z" fill="#EB8909"/>
</svg>
