<svg width="34" height="42" viewBox="0 0 34 42" fill="none" xmlns="http://www.w3.org/2000/svg">
<path fill-rule="evenodd" clip-rule="evenodd" d="M6.16667 2.58333C5.30471 2.58333 4.47806 2.92574 3.86857 3.53523C3.25908 4.14473 2.91667 4.97138 2.91667 5.83333V36.1667C2.91667 37.0286 3.25908 37.8553 3.86857 38.4648C4.47806 39.0743 5.30471 39.4167 6.16667 39.4167H27.8333C28.6953 39.4167 29.5219 39.0743 30.1314 38.4648C30.7409 37.8553 31.0833 37.0286 31.0833 36.1667V15.3972V15.3972C31.0832 15.11 30.969 14.8344 30.7659 14.6313L19.0355 2.90086C18.8324 2.69774 18.5569 2.58345 18.2697 2.58333V2.58333H6.16667ZM2.3365 2.00317C3.35233 0.987347 4.73008 0.416664 6.16667 0.416664H18.2697C19.1315 0.416848 19.9582 0.759335 20.5675 1.3688M20.5675 1.3688L32.2978 13.099V13.099C32.9072 13.7084 33.2498 14.5349 33.25 15.3968V36.1667C33.25 37.6033 32.6793 38.981 31.6635 39.9968C30.6477 41.0126 29.2699 41.5833 27.8333 41.5833H6.16667C4.73008 41.5833 3.35233 41.0126 2.3365 39.9968C1.32068 38.981 0.75 37.6033 0.75 36.1667V5.83333C0.75 4.39674 1.32068 3.01899 2.3365 2.00317" fill="#3F82EF"/>
<path fill-rule="evenodd" clip-rule="evenodd" d="M8.33333 17.75C8.33333 17.1517 8.81836 16.6667 9.41667 16.6667H24.5833C25.1816 16.6667 25.6667 17.1517 25.6667 17.75C25.6667 18.3483 25.1816 18.8333 24.5833 18.8333H9.41667C8.81836 18.8333 8.33333 18.3483 8.33333 17.75ZM8.33333 24.25C8.33333 23.6517 8.81836 23.1667 9.41667 23.1667H20.25C20.8483 23.1667 21.3333 23.6517 21.3333 24.25C21.3333 24.8483 20.8483 25.3333 20.25 25.3333H9.41667C8.81836 25.3333 8.33333 24.8483 8.33333 24.25ZM8.33333 30.75C8.33333 30.1517 8.81836 29.6667 9.41667 29.6667H15.9167C16.515 29.6667 17 30.1517 17 30.75C17 31.3483 16.515 31.8333 15.9167 31.8333H9.41667C8.81836 31.8333 8.33333 31.3483 8.33333 30.75Z" fill="#3F82EF"/>
</svg>
